<svg xmlns="http://www.w3.org/2000/svg" viewBox="0 0 64 64" width="64" height="64">
  <defs>
    <linearGradient id="grad" x1="0%" y1="0%" x2="100%" y2="100%">
      <stop offset="0%" style="stop-color:#E91E8C;stop-opacity:1" />
      <stop offset="100%" style="stop-color:#FF6BB5;stop-opacity:1" />
    </linearGradient>
  </defs>
  <rect width="64" height="64" rx="14" fill="url(#grad)"/>
  <path d="M32 8C24.3 8 18 14.3 18 22c0 4.5 1.8 7.8 3.4 11.2 1.6 3.3 2.4 5.6 2.4 9 0 1.3.9 2.2 2.2 2.2H38c1.3 0 2.2-.9 2.2-2.2 0-3.4.8-5.7 2.4-9C44.2 29.8 46 26.5 46 22c0-7.7-5.7-14-14-14z" fill="white" opacity="0.95"/>
  <rect x="27" y="34" width="2.5" height="8" rx="1.25" fill="white" opacity="0.7"/>
  <rect x="34.5" y="34" width="2.5" height="8" rx="1.25" fill="white" opacity="0.7"/>
  <rect x="30.75" y="8" width="2.5" height="5" rx="1.25" fill="white" opacity="0.6"/>
</svg>
